<?xml version="1.0" encoding="UTF-8" standalone="no"?>
<svg width="87px" height="24px" viewBox="0 0 87 24" version="1.1" xmlns="http://www.w3.org/2000/svg" xmlns:xlink="http://www.w3.org/1999/xlink" xmlns:sketch="http://www.bohemiancoding.com/sketch/ns">
    <!-- Generator: Sketch 3.4.2 (15855) - http://www.bohemiancoding.com/sketch -->
    <title>Logo</title>
    <desc>Created with Sketch.</desc>
    <defs>
        <path id="path-1" d="M0,0.474483495 L86.5822622,0.474483495 L86.5822622,24.2025982 L0,24.2025982"></path>
        <path id="path-3" d="M0,0.474483495 L86.5822622,0.474483495 L86.5822622,24.2025982 L0,24.2025982 L0,0.474483495 Z"></path>
    </defs>
    <g id="Page-1" stroke="none" stroke-width="1" fill="none" fill-rule="evenodd" sketch:type="MSPage">
        <g id="Home" sketch:type="MSArtboardGroup" transform="translate(-21.000000, -65.000000)">
            <g id="Logo" sketch:type="MSLayerGroup" transform="translate(21.000000, 64.797402)">
                <path d="M59.5528568,6.85124898 C59.1166472,6.41503937 58.6044527,6.06888593 58.0168361,5.81335152 C57.4292196,5.55781711 56.8072691,5.42948705 56.1515475,5.42948705 C54.6948888,5.42948705 53.4661848,6.00303235 52.463747,7.14899723 C51.9881378,6.57207483 51.4326037,6.14149372 50.7982705,5.85669105 C50.1633744,5.57188839 49.4857017,5.42948705 48.7646894,5.42948705 C47.0125339,5.42948705 43.9416182,6.00190664 43.9416182,10.3662542 L43.9416182,16.4062096 C43.9416182,16.4219694 43.9427439,16.4377293 43.9438696,16.4529263 C43.9427439,16.4664347 43.9416182,16.4799431 43.9416182,16.4940144 C43.9416182,17.7007672 44.9198534,18.6801281 46.1271691,18.6801281 C47.3344847,18.6801281 48.31272,17.7007672 48.31272,16.4940144 L48.31272,10.9409252 C48.31272,10.9409252 48.3144085,10.938111 48.3149714,10.9358596 C48.3132828,10.9139084 48.3115943,10.89252 48.3115943,10.870006 C48.3115943,10.3291061 48.7500553,9.89064504 49.2915181,9.89064504 C49.832418,9.89064504 50.2714419,10.3291061 50.2714419,10.870006 C50.2714419,10.8716945 50.270879,10.8728202 50.270879,10.8745088 C50.2720047,10.881263 50.2720047,10.885203 50.2720047,10.885203 L50.2720047,16.4940144 C50.2720047,17.7007672 51.2508028,18.6801281 52.4581185,18.6801281 C53.6654341,18.6801281 54.6436694,17.7007672 54.6436694,16.4940144 L54.6436694,16.4934515 L54.6498607,16.4940144 L54.6498607,10.885203 C54.6498607,10.885203 54.6498607,10.881263 54.6509864,10.8745088 C54.6509864,10.8728202 54.6504236,10.8716945 54.6504236,10.870006 C54.6504236,10.3291061 55.0888846,9.89064504 55.6303474,9.89064504 C56.1718102,9.89064504 56.6102712,10.3291061 56.6102712,10.870006 C56.6102712,10.89252 56.6085826,10.9139084 56.6074569,10.9358596 C56.6074569,10.938111 56.6091455,10.9409252 56.6091455,10.9409252 L56.6091455,16.3814442 C56.6074569,16.4191552 56.6029541,16.4557405 56.6029541,16.4940144 C56.6029541,17.7007672 57.5817522,18.6801281 58.7890679,18.6801281 C59.9963835,18.6801281 60.9746188,17.7007672 60.9746188,16.4940144 C60.9746188,16.4799431 60.9729302,16.4664347 60.9729302,16.4529263 C60.9729302,16.4377293 60.9746188,16.4219694 60.9746188,16.4062096 L60.9746188,10.2525583 C60.9746188,9.59683675 60.8462887,8.97488626 60.5907543,8.38726969 C60.3346571,7.80021597 59.9885036,7.2874586 59.5528568,6.85124898" id="Fill-1" fill="#FFFFFF" sketch:type="MSShapeGroup"></path>
                <path d="M71.0866332,12.8779774 C70.9538003,13.1852941 70.7725622,13.4548998 70.5423561,13.6862316 C70.3127129,13.9186891 70.0431072,14.1021786 69.7341019,14.2383885 C69.423971,14.3734728 69.0930145,14.4410149 68.7401068,14.4410149 C68.3821335,14.4410149 68.0489257,14.3734728 67.7387947,14.2383885 C67.4292266,14.1021786 67.1613094,13.9203776 66.9339176,13.6901715 C66.7070886,13.4605283 66.5264134,13.1909226 66.3935805,12.8813545 C66.2607477,12.5717864 66.1943312,12.2436441 66.1943312,11.8946765 C66.1943312,11.5473973 66.2607477,11.2181294 66.3935805,10.9079984 C66.5264134,10.599556 66.7070886,10.3293875 66.9339176,10.0991814 C67.1613094,9.87010097 67.4292266,9.68830006 67.7387947,9.55265294 C68.0489257,9.41700582 68.3821335,9.34890083 68.7401068,9.34890083 C69.0930145,9.34890083 69.423971,9.41700582 69.7341019,9.55265294 C70.0431072,9.68830006 70.3127129,9.87122667 70.5423561,10.1036842 C70.7725622,10.3355788 70.9538003,10.6051845 71.0866332,10.9125012 C71.219466,11.219818 71.2858825,11.5473973 71.2858825,11.8946765 C71.2858825,12.2436441 71.219466,12.5706607 71.0866332,12.8779774 M73.6003263,7.03501988 C72.2421665,5.6931828 70.6217181,5.02170142 68.7401068,5.02170142 C66.84161,5.02170142 65.2222873,5.6931828 63.8798874,7.03501988 C62.5380503,8.3762941 61.8671318,9.99674247 61.8671318,11.8946765 C61.8671318,13.7931733 62.5380503,15.4130588 63.8798874,16.754333 C65.2222873,18.0972958 66.84161,18.7676515 68.7401068,18.7676515 C70.6217181,18.7676515 72.2421665,18.0972958 73.6003263,16.754333 C74.9421633,15.4293815 75.6130819,13.809496 75.6130819,11.8946765 C75.6046391,10.9462723 75.4352209,10.0659732 75.1031388,9.25659325 C74.7721823,8.44552478 74.2712448,7.70650126 73.6003263,7.03501988" id="Fill-3" fill="#FFFFFF" sketch:type="MSShapeGroup"></path>
                <path d="M12.7353509,12.9450129 C12.1629313,12.9450129 11.6439826,13.1667763 11.2544896,13.5264381 L11.2533639,13.5247496 C10.2790686,14.4990449 4.37194608,15.3331902 4.37194608,10.1149975 C4.37194608,5.6999933 9.47925715,4.95140131 11.1903246,6.66303157 L11.1908874,6.66246872 C11.5860089,7.05477595 12.1291602,7.29623908 12.7285967,7.29623908 C13.9364752,7.29623908 14.9147104,6.31744098 14.9147104,5.11068818 C14.9147104,4.50393467 14.6676188,3.95628053 14.269683,3.56059619 C14.2482947,3.53470504 14.224655,3.50937674 14.1998895,3.48517414 C12.5490472,2.13770856 10.6995184,1.46341291 8.65186601,1.46341291 C7.4197849,1.46341291 6.28057423,1.69080477 5.23254545,2.14333707 C5.17851174,2.16416256 5.12504088,2.18836516 5.07325858,2.21425631 C4.15355985,2.6347061 3.30534321,3.22963973 2.53142292,4.00468573 C0.843995256,5.69211339 0.00028142556,7.72850874 0.00028142556,10.1149975 C0.00028142556,12.5088033 0.843995256,14.5491386 2.53142292,16.2360034 C4.21772487,17.9234311 6.25862304,18.7671449 8.65186601,18.7671449 C10.6499875,18.7671449 12.4466083,18.1373145 14.042854,16.8793423 C14.5753112,16.4814065 14.9209018,15.8470733 14.9209018,15.1305638 C14.9209018,13.9243739 13.9426665,12.9450129 12.7353509,12.9450129" id="Fill-5" fill="#FFFFFF" sketch:type="MSShapeGroup"></path>
                <path d="M20.0743667,8.76049627 C20.0743667,7.55318062 19.0961314,6.57494537 17.8888158,6.57494537 C16.6820629,6.57494537 15.702702,7.55318062 15.702702,8.76049627 L15.702702,16.7175226 L15.7156476,16.7175226 C15.8315949,17.8150823 16.7602993,18.6711788 17.8888158,18.6711788 C19.0173322,18.6711788 19.9454737,17.8150823 20.0619839,16.7175226 L20.0625468,16.7175226 L20.0625468,16.715834 C20.0704267,16.640412 20.0743667,16.5633014 20.0743667,16.4850651 C20.0743667,16.4073916 20.0704267,16.330281 20.0625468,16.2542961 L20.0625468,8.99126523 C20.0704267,8.91528033 20.0743667,8.83873258 20.0743667,8.76049627" id="Fill-7" fill="#FFFFFF" sketch:type="MSShapeGroup"></path>
                <path d="M17.8405794,0.504314604 C16.503808,0.504314604 15.4197567,1.58836586 15.4197567,2.92457442 C15.4197567,4.26134584 16.503808,5.3453971 17.8405794,5.3453971 C19.1773508,5.3453971 20.2608392,4.26134584 20.2608392,2.92457442 C20.2608392,1.58836586 19.1773508,0.504314604 17.8405794,0.504314604" id="Fill-9" fill="#FFFFFF" sketch:type="MSShapeGroup"></path>
                <g id="Group-13">
                    <mask id="mask-2" sketch:name="Clip 12" fill="white">
                        <use xlink:href="#path-1"></use>
                    </mask>
                    <g id="Clip-12"></g>
                    <path d="M41.7318084,5.11372757 C40.8481321,5.11372757 40.0888459,5.63999337 39.7443811,6.39477673 L39.7426925,6.39477673 L39.7314355,6.42066788 C39.721867,6.44318192 39.7122985,6.46625882 39.7032929,6.48989857 L37.7653965,11.1694428 L34.9275012,6.26532097 C34.9213098,6.25406395 34.9151184,6.24393263 34.9089271,6.23323845 L34.8548934,6.14149372 L34.8532048,6.14149372 C34.4665261,5.52517174 33.7832248,5.11372757 33.0014246,5.11372757 C31.7946718,5.11372757 30.8158737,6.09308852 30.8158737,7.29984133 C30.8158737,7.7112855 30.9318211,8.09514996 31.1293818,8.42385502 L31.1293818,8.42385502 L35.1301276,15.3508638 C35.2032982,15.5270362 35.2984201,15.6891373 35.4115531,15.8382928 L35.6563934,16.2615569 L33.657709,21.0896938 C33.6295665,21.149356 33.6042382,21.2112696 33.5817241,21.274309 L33.56709,21.3086429 L33.5687786,21.3092057 C33.4922308,21.5309691 33.4488913,21.7690551 33.4488913,22.0167096 C33.4488913,23.2240252 34.4276894,24.2028233 35.6344422,24.2028233 C36.6779682,24.2028233 37.5492617,23.4716797 37.7670851,22.4940073 L43.7985977,8.02704498 C43.8779597,7.84749547 43.9173593,7.67807728 43.9173593,7.51879041 C43.9173593,7.48276794 43.9156707,7.44674547 43.9122936,7.41016015 C43.9139822,7.37413768 43.9173593,7.33755235 43.9173593,7.29984133 C43.9173593,6.09308852 42.939124,5.11372757 41.7318084,5.11372757" id="Fill-11" fill="#FFFFFF" sketch:type="MSShapeGroup" mask="url(#mask-2)"></path>
                </g>
                <path d="M27.4359528,9.44120842 L28.3151262,9.44120842 C29.5224419,9.44120842 30.5006771,8.46297317 30.5006771,7.25509466 C30.5006771,6.04890471 29.5224419,5.06954376 28.3151262,5.06954376 C28.2368899,5.06954376 28.1603421,5.07460942 28.0843572,5.08136363 L27.4359528,5.08136363 L27.4359528,3.20538085 C27.4443955,3.1299588 27.4483355,3.05284819 27.4483355,2.97461189 C27.4483355,1.76842194 26.4695374,0.789060986 25.2627846,0.789060986 C24.0554689,0.789060986 23.0766708,1.76842194 23.0766708,2.97461189 L23.0766708,5.06954376 C21.869918,5.06954376 20.8911199,6.04890471 20.8911199,7.25509466 C20.8911199,8.46297317 21.869918,9.44120842 23.0766708,9.44120842 L23.0766708,12.3826684 C23.0766708,15.5036778 22.5498422,18.7670886 27.9419559,18.7670886 L27.9419559,18.7631487 C27.9689728,18.7637115 27.9948639,18.7670886 28.0224436,18.7670886 C29.2291964,18.7670886 30.2079945,17.7888534 30.2079945,16.5809749 C30.2079945,15.4181245 29.2978643,14.4697203 28.1513365,14.4016153 L28.1513365,14.3993639 C27.3543393,14.3993639 27.4359528,13.6412035 27.4359528,12.9061199 C27.4359528,12.8993657 27.4337013,12.8926115 27.4337013,12.8864201 L27.4359528,12.8864201 L27.4359528,9.44120842 Z" id="Fill-14" fill="#FFFFFF" sketch:type="MSShapeGroup"></path>
                <g id="Group-18">
                    <mask id="mask-4" sketch:name="Clip 17" fill="white">
                        <use xlink:href="#path-3"></use>
                    </mask>
                    <g id="Clip-17"></g>
                    <path d="M81.1088165,6.58186844 L81.1088165,2.89069079 C81.1166964,2.81526874 81.1211992,2.73759528 81.1211992,2.66048468 C81.1211992,1.45260617 80.1424011,0.474370925 78.9356483,0.474370925 C77.7283327,0.474370925 76.7495346,1.45260617 76.7495346,2.66048468 L76.7495346,6.58186844 L76.7495346,12.5706044 L76.7495346,16.4931138 C76.7495346,17.6998666 77.7283327,18.6792276 78.9356483,18.6792276 C80.1424011,18.6792276 81.1211992,17.6998666 81.1211992,16.4931138 C81.1211992,16.4148775 81.1166964,16.3377669 81.1088165,16.2623449 L81.1088165,12.5706044 L81.1088165,6.58186844 Z" id="Fill-16" fill="#FFFFFF" sketch:type="MSShapeGroup" mask="url(#mask-4)"></path>
                </g>
                <path d="M86.5697107,12.5707169 L86.5697107,6.58198101 L86.5697107,2.89080336 C86.5781534,2.81481846 86.5820934,2.73770785 86.5820934,2.66059725 C86.5820934,1.45271874 85.6038581,0.474483495 84.3965425,0.474483495 C83.1892268,0.474483495 82.2104287,1.45271874 82.2104287,2.66059725 L82.2104287,6.58198101 L82.2104287,12.5707169 L82.2104287,16.4932264 C82.2104287,17.6999792 83.1892268,18.6793402 84.3965425,18.6793402 C85.6038581,18.6793402 86.5820934,17.6999792 86.5820934,16.4932264 C86.5820934,16.4149901 86.5781534,16.3373166 86.5697107,16.2624574 L86.5697107,12.5707169 Z" id="Fill-19" fill="#FFFFFF" sketch:type="MSShapeGroup"></path>
            </g>
        </g>
    </g>
</svg>