<?xml version="1.0" encoding="UTF-8" standalone="no"?>
<svg width="185px" height="51px" viewBox="0 0 185 51" version="1.1" xmlns="http://www.w3.org/2000/svg" xmlns:xlink="http://www.w3.org/1999/xlink" xmlns:sketch="http://www.bohemiancoding.com/sketch/ns">
    <!-- Generator: Sketch 3.4.2 (15855) - http://www.bohemiancoding.com/sketch -->
    <title>Logo</title>
    <desc>Created with Sketch.</desc>
    <defs>
        <path id="path-1" d="M0,1.01269481 L184.793377,1.01269481 L184.793377,51.6558442 L0,51.6558442"></path>
        <path id="path-3" d="M0,1.01269481 L184.793377,1.01269481 L184.793377,51.6558442 L0,51.6558442 L0,1.01269481 Z"></path>
    </defs>
    <g id="Page-1" stroke="none" stroke-width="1" fill="none" fill-rule="evenodd" sketch:type="MSPage">
        <g id="iPhone-6" sketch:type="MSArtboardGroup" transform="translate(-95.000000, -197.000000)">
            <g id="Logo" sketch:type="MSLayerGroup" transform="translate(95.000000, 196.000000)">
                <path d="M127.10425,14.6226883 C126.173244,13.6916818 125.080062,12.9528831 123.825906,12.4074935 C122.57175,11.8621039 121.244315,11.5882078 119.844802,11.5882078 C116.735841,11.5882078 114.113406,12.8123312 111.973893,15.2581753 C110.958795,14.0268442 109.773114,13.1078506 108.41925,12.4999935 C107.064185,11.8921364 105.617821,11.5882078 104.078958,11.5882078 C100.339315,11.5882078 93.7850292,12.8099286 93.7850292,22.1247987 L93.7850292,35.0159351 C93.7850292,35.0495714 93.7874318,35.0832078 93.7898344,35.1156429 C93.7874318,35.144474 93.7850292,35.1733052 93.7850292,35.2033377 C93.7850292,37.7789221 95.8728864,39.8691818 98.4496721,39.8691818 C101.026458,39.8691818 103.114315,37.7789221 103.114315,35.2033377 L103.114315,23.3513247 C103.114315,23.3513247 103.117919,23.3453182 103.11912,23.340513 C103.115516,23.2936623 103.111912,23.248013 103.111912,23.199961 C103.111912,22.045513 104.047724,21.1097013 105.203373,21.1097013 C106.357821,21.1097013 107.294834,22.045513 107.294834,23.199961 C107.294834,23.2035649 107.293633,23.2059675 107.293633,23.2095714 C107.296036,23.223987 107.296036,23.2323961 107.296036,23.2323961 L107.296036,35.2033377 C107.296036,37.7789221 109.385094,39.8691818 111.96188,39.8691818 C114.538666,39.8691818 116.626523,37.7789221 116.626523,35.2033377 L116.626523,35.2021364 L116.639737,35.2033377 L116.639737,23.2323961 C116.639737,23.2323961 116.639737,23.223987 116.64214,23.2095714 C116.64214,23.2059675 116.640938,23.2035649 116.640938,23.199961 C116.640938,22.045513 117.57675,21.1097013 118.732399,21.1097013 C119.888049,21.1097013 120.82386,22.045513 120.82386,23.199961 C120.82386,23.248013 120.820256,23.2936623 120.817854,23.340513 C120.817854,23.3453182 120.821458,23.3513247 120.821458,23.3513247 L120.821458,34.9630779 C120.817854,35.0435649 120.808244,35.1216494 120.808244,35.2033377 C120.808244,37.7789221 122.897302,39.8691818 125.474088,39.8691818 C128.050873,39.8691818 130.138731,37.7789221 130.138731,35.2033377 C130.138731,35.1733052 130.135127,35.144474 130.135127,35.1156429 C130.135127,35.0832078 130.138731,35.0495714 130.138731,35.0159351 L130.138731,21.8821364 C130.138731,20.4826234 129.864834,19.1551883 129.319445,17.9010325 C128.772854,16.6480779 128.034055,15.5536948 127.10425,14.6226883" id="Fill-1" fill="#FFFFFF" sketch:type="MSShapeGroup"></path>
                <path d="M151.720903,27.4855942 C151.437396,28.1415032 151.050578,28.7169253 150.559247,29.2106591 C150.069117,29.7067955 149.493695,30.0984188 148.834182,30.3891331 C148.172266,30.6774448 147.465903,30.8216006 146.712688,30.8216006 C145.948662,30.8216006 145.237494,30.6774448 144.575578,30.3891331 C143.914864,30.0984188 143.343045,29.7103994 142.857721,29.2190682 C142.373597,28.7289383 141.987981,28.1535162 141.704474,27.4928019 C141.420968,26.8320877 141.279214,26.1317305 141.279214,25.3869253 C141.279214,24.645724 141.420968,23.9429643 141.704474,23.2810487 C141.987981,22.622737 142.373597,22.0461136 142.857721,21.5547825 C143.343045,21.0658539 143.914864,20.6778344 144.575578,20.3883214 C145.237494,20.0988084 145.948662,19.9534513 146.712688,19.9534513 C147.465903,19.9534513 148.172266,20.0988084 148.834182,20.3883214 C149.493695,20.6778344 150.069117,21.0682565 150.559247,21.5643929 C151.050578,22.0593279 151.437396,22.63475 151.720903,23.2906591 C152.004409,23.9465682 152.146162,24.645724 152.146162,25.3869253 C152.146162,26.1317305 152.004409,26.8296851 151.720903,27.4855942 M157.085903,15.0149123 C154.187169,12.1510162 150.72863,10.7178669 146.712688,10.7178669 C142.660708,10.7178669 139.204571,12.1510162 136.339474,15.0149123 C133.475578,17.8776071 132.04363,21.3361461 132.04363,25.3869253 C132.04363,29.4389058 133.475578,32.8962435 136.339474,35.7589383 C139.204571,38.625237 142.660708,40.0559838 146.712688,40.0559838 C150.72863,40.0559838 154.187169,38.625237 157.085903,35.7589383 C159.949799,32.9310812 161.381747,29.4737435 161.381747,25.3869253 C161.363727,23.362737 161.002136,21.4839058 160.29337,19.7564383 C159.587006,18.0253669 158.517851,16.4480617 157.085903,15.0149123" id="Fill-3" fill="#FFFFFF" sketch:type="MSShapeGroup"></path>
                <path d="M27.1811851,27.6286688 C25.9594643,27.6286688 24.8518669,28.1019805 24.0205682,28.8696104 L24.0181656,28.8660065 C21.9387175,30.9454545 9.33108766,32.7257792 9.33108766,21.588539 C9.33108766,12.1655519 20.2316721,10.5678247 23.8836201,14.220974 L23.8848214,14.2197727 C24.7281331,15.0570779 25.8873864,15.5724351 27.1667695,15.5724351 C29.7447565,15.5724351 31.8326136,13.4833766 31.8326136,10.9077922 C31.8326136,9.61279221 31.3052435,8.44392857 30.4559253,7.59941558 C30.410276,7.54415584 30.3598214,7.4900974 30.3069643,7.43844156 C26.7835552,4.56253247 22.8360877,3.12337662 18.465763,3.12337662 C15.8361201,3.12337662 13.4046916,3.6087013 11.1678734,4.57454545 C11.0525487,4.61899351 10.9384253,4.67064935 10.8279058,4.72590909 C8.86498377,5.62327922 7.05462662,6.89305195 5.40284091,8.54724026 C1.8013474,12.1487338 0.000600649351,16.4950325 0.000600649351,21.588539 C0.000600649351,26.6976623 1.8013474,31.0523701 5.40284091,34.6526623 C9.00193182,38.2541558 13.3578409,40.0549026 18.465763,40.0549026 C22.7303734,40.0549026 26.5649188,38.7106494 29.9718019,36.0257468 C31.1082305,35.1764286 31.8458279,33.8225649 31.8458279,32.2933117 C31.8458279,29.7189286 29.7579708,27.6286688 27.1811851,27.6286688" id="Fill-5" fill="#FFFFFF" sketch:type="MSShapeGroup"></path>
                <path d="M42.8449188,18.6976136 C42.8449188,16.1208279 40.7570617,14.0329708 38.180276,14.0329708 C35.6046916,14.0329708 33.5144318,16.1208279 33.5144318,18.6976136 L33.5144318,35.6803734 L33.5420617,35.6803734 C33.7895292,38.0229058 35.7716721,39.8500812 38.180276,39.8500812 C40.5888799,39.8500812 42.5698214,38.0229058 42.8184903,35.6803734 L42.8196916,35.6803734 L42.8196916,35.6767695 C42.8365097,35.5157955 42.8449188,35.3512175 42.8449188,35.184237 C42.8449188,35.0184578 42.8365097,34.8538799 42.8196916,34.6917045 L42.8196916,19.1901461 C42.8365097,19.0279708 42.8449188,18.8645942 42.8449188,18.6976136" id="Fill-7" fill="#FFFFFF" sketch:type="MSShapeGroup"></path>
                <path d="M38.0773247,1.07636364 C35.2242403,1.07636364 32.910539,3.39006494 32.910539,6.24194805 C32.910539,9.09503247 35.2242403,11.4087338 38.0773247,11.4087338 C40.9304091,11.4087338 43.2429091,9.09503247 43.2429091,6.24194805 C43.2429091,3.39006494 40.9304091,1.07636364 38.0773247,1.07636364" id="Fill-9" fill="#FFFFFF" sketch:type="MSShapeGroup"></path>
                <g id="Group-13">
                    <mask id="mask-2" sketch:name="Clip 12" fill="white">
                        <use xlink:href="#path-1"></use>
                    </mask>
                    <g id="Clip-12"></g>
                    <path d="M89.0686104,10.9142792 C87.1825714,10.9142792 85.5620195,12.0374935 84.8268247,13.6484351 L84.8232208,13.6484351 L84.7991948,13.7036948 C84.7787727,13.7517468 84.7583506,13.801 84.7391299,13.8514545 L80.6030584,23.8390519 L74.5461104,13.3721364 C74.5328961,13.3481104 74.5196818,13.326487 74.5064675,13.3036623 L74.3911429,13.1078506 L74.387539,13.1078506 C73.5622468,11.7924286 72.1038701,10.9142792 70.4352662,10.9142792 C67.8596818,10.9142792 65.7706234,13.004539 65.7706234,15.5801234 C65.7706234,16.4582727 66.0180909,17.2775584 66.4397468,17.9791169 L66.4397468,17.9791169 L74.9785779,32.7635 C75.1347468,33.1395065 75.3377662,33.4854805 75.5792273,33.8038247 L76.1017922,34.7072013 L71.8359805,45.0119416 C71.7759156,45.1392792 71.7218571,45.2714221 71.6738052,45.4059675 L71.6425714,45.4792468 L71.6461753,45.4804481 C71.4827987,45.9537597 71.3902987,46.4619091 71.3902987,46.9904805 C71.3902987,49.5672662 73.4793571,51.6563247 76.0549416,51.6563247 C78.2821494,51.6563247 80.1417597,50.0958377 80.6066623,48.0091818 L93.4797792,17.1322013 C93.6491623,16.748987 93.7332532,16.3873961 93.7332532,16.0474286 C93.7332532,15.9705455 93.7296494,15.8936623 93.7224416,15.8155779 C93.7260455,15.7386948 93.7332532,15.6606104 93.7332532,15.5801234 C93.7332532,13.004539 91.6453961,10.9142792 89.0686104,10.9142792" id="Fill-11" fill="#FFFFFF" sketch:type="MSShapeGroup" mask="url(#mask-2)"></path>
                </g>
                <path d="M58.5568247,20.1504643 L60.4332532,20.1504643 C63.010039,20.1504643 65.0978961,18.0626071 65.0978961,15.4846201 C65.0978961,12.910237 63.010039,10.8199773 60.4332532,10.8199773 C60.2662727,10.8199773 60.1028961,10.830789 59.9407208,10.8452045 L58.5568247,10.8452045 L58.5568247,6.84127597 C58.5748442,6.68030195 58.5832532,6.51572403 58.5832532,6.34874351 C58.5832532,3.77436039 56.4941948,1.68410065 53.9186104,1.68410065 C51.3418247,1.68410065 49.2527662,3.77436039 49.2527662,6.34874351 L49.2527662,10.8199773 C46.6771818,10.8199773 44.5881234,12.910237 44.5881234,15.4846201 C44.5881234,18.0626071 46.6771818,20.1504643 49.2527662,20.1504643 L49.2527662,26.4284513 C49.2527662,33.0896526 48.1283506,40.0547825 59.6367922,40.0547825 L59.6367922,40.0463734 C59.6944545,40.0475747 59.7497143,40.0547825 59.8085779,40.0547825 C62.3841623,40.0547825 64.4732208,37.9669253 64.4732208,35.3889383 C64.4732208,32.9070552 62.5307208,30.8828669 60.0836753,30.7375097 L60.0836753,30.7327045 C58.3826364,30.7327045 58.5568247,29.1145552 58.5568247,27.5456591 C58.5568247,27.5312435 58.5520195,27.5168279 58.5520195,27.5036136 L58.5568247,27.5036136 L58.5568247,20.1504643 Z" id="Fill-14" fill="#FFFFFF" sketch:type="MSShapeGroup"></path>
                <g id="Group-18">
                    <mask id="mask-4" sketch:name="Clip 17" fill="white">
                        <use xlink:href="#path-3"></use>
                    </mask>
                    <g id="Clip-17"></g>
                    <path d="M173.111347,14.0477468 L173.111347,6.16962987 C173.128166,6.00865584 173.137776,5.84287662 173.137776,5.6782987 C173.137776,3.10031169 171.048718,1.01245455 168.473133,1.01245455 C165.896347,1.01245455 163.807289,3.10031169 163.807289,5.6782987 L163.807289,14.0477468 L163.807289,26.8295649 L163.807289,35.2014156 C163.807289,37.777 165.896347,39.8672597 168.473133,39.8672597 C171.048718,39.8672597 173.137776,37.777 173.137776,35.2014156 C173.137776,35.0344351 173.128166,34.8698571 173.111347,34.7088831 L173.111347,26.8295649 L173.111347,14.0477468 Z" id="Fill-16" fill="#FFFFFF" sketch:type="MSShapeGroup" mask="url(#mask-4)"></path>
                </g>
                <path d="M184.766588,26.8298052 L184.766588,14.047987 L184.766588,6.16987013 C184.784607,6.00769481 184.793016,5.84311688 184.793016,5.67853896 C184.793016,3.10055195 182.705159,1.01269481 180.128373,1.01269481 C177.551588,1.01269481 175.462529,3.10055195 175.462529,5.67853896 L175.462529,14.047987 L175.462529,26.8298052 L175.462529,35.2016558 C175.462529,37.7772403 177.551588,39.8675 180.128373,39.8675 C182.705159,39.8675 184.793016,37.7772403 184.793016,35.2016558 C184.793016,35.0346753 184.784607,34.8688961 184.766588,34.7091234 L184.766588,26.8298052 Z" id="Fill-19" fill="#FFFFFF" sketch:type="MSShapeGroup"></path>
            </g>
        </g>
    </g>
</svg>